# xmcd CD database file
#
# Track frame offsets:
#	150
#	26160
#	59293
#	93163
#	177931
#	203756
#	236774
#
# Disc length: 3532 seconds
#
# Revision: 0
# Processed by: cddbd v1.5.2PL0 Copyright (c) Steve Scherf et al.
# Submitted via: CDex 1.51
#
DISCID=570dca07
DTITLE=Bill Frisell Trio  - 2011 Live On JazzSet
DYEAR=2011
DGENRE=Jazz
TTITLE0=Bill Frisell Trio - You Are My Sunshine (Jimmie Davis, Charles Mitchell)
TTITLE1=Bill Frisell Trio - Keep Your Eyes Open (Frisell)
TTITLE2=Bill Frisell Trio - Raise Four (Thelonious Monk)
TTITLE3=Bill Frisell Trio - Throughout..Poem for Eva (Frisell)
TTITLE4=Bill Frisell Trio - Lovesick Blues (Hank Williams)
TTITLE5=Bill Frisell Trio - Ventura (Lucinda Williams)
TTITLE6=Bill Frisell Trio - What the World Needs Now (Hal David, Burt Bacharach)
EXTD=YEAR: 2011
EXTT0=
EXTT1=
EXTT2=
EXTT3=
EXTT4=
EXTT5=
EXTT6=
PLAYORDER=
